<svg width="163" height="41" viewBox="0 0 163 41" fill="none" xmlns="http://www.w3.org/2000/svg">
    <path d="M160.521 38.2563C160.058 38.2689 159.6 38.1566 159.196 37.931C158.851 37.7254 158.568 37.4301 158.378 37.0764C158.182 36.7135 158.075 36.3089 158.067 35.8965C158.065 35.5015 158.154 35.1113 158.329 34.757C158.499 34.4235 158.756 34.1422 159.073 33.9428C159.432 33.7303 159.843 33.6231 160.26 33.6335C160.605 33.6273 160.947 33.7027 161.257 33.8535C161.542 33.9971 161.778 34.2206 161.936 34.4966C162.133 34.8746 162.218 35.3008 162.182 35.7254V35.9529H158.914C158.931 36.2926 159.032 36.6228 159.208 36.9138C159.356 37.1301 159.563 37.2995 159.805 37.4017C160.067 37.4975 160.344 37.5443 160.623 37.5399C160.844 37.542 161.065 37.5203 161.281 37.4751C161.501 37.4347 161.715 37.3691 161.919 37.2795L162.026 37.9226C161.82 38.0102 161.61 38.0862 161.396 38.1501C161.114 38.2303 160.822 38.2661 160.529 38.2563H160.521ZM159.017 35.3747H161.34C161.345 35.1856 161.303 34.9982 161.217 34.8294C161.141 34.6726 161.014 34.5463 160.857 34.4712C160.665 34.3828 160.454 34.341 160.243 34.349C159.947 34.3349 159.655 34.4307 159.425 34.6179C159.205 34.8197 159.051 35.0836 158.983 35.3747H159.017Z" fill="#78909C"></path>
    <path d="M18.2685 0.756396L16.1905 0V40H16.2016C19.7353 38.2314 22.8911 35.7731 25.4803 32.7697L25.6136 32.6029C26.6137 31.4016 27.5138 30.1001 28.3028 28.7542C28.4361 28.5206 28.5695 28.2981 28.7028 28.0534C30.4474 24.8832 31.6031 21.4238 32.1031 17.8309C32.2143 17.0968 32.2809 16.3515 32.3365 15.5951C32.381 14.9833 32.381 14.3493 32.381 13.7152C32.381 11.5595 32.1631 9.4533 31.7031 7.35261C31.6364 7.04116 31.5031 6.76307 31.3142 6.50723C31.1253 6.26251 30.8919 6.06229 30.6141 5.91769C26.6026 3.97108 22.48 2.24694 18.2685 0.756396Z" fill="#246AA8"></path>
    <path d="M14.1125 0.756396L16.1905 0V40H16.1794C12.6457 38.2314 9.48982 35.7731 6.90068 32.7697L6.76733 32.6029C5.76723 31.4016 4.86714 30.1001 4.07818 28.7542C3.94483 28.5206 3.81148 28.2981 3.67814 28.0534C1.93352 24.8832 0.777854 21.4238 0.277805 17.8309C0.166683 17.0968 0.10001 16.3515 0.0444488 15.5951C0 14.9833 0 14.3493 0 13.7152C0 11.5595 0.217888 9.45329 0.677844 7.35261C0.744517 7.04116 0.877864 6.76307 1.06677 6.50723C1.25568 6.26251 1.48903 6.06229 1.76684 5.91769C5.77834 3.97108 9.90097 2.24694 14.1125 0.756396Z" fill="#173A68"></path>
    <path d="M31.6109 12.2677V14.7122C31.6033 14.865 31.5869 15.0172 31.562 15.1682V15.5264C31.5586 15.5453 31.5586 15.5648 31.562 15.5837C31.5717 15.7192 31.5522 15.8551 31.5047 15.9824C31.4473 16.113 31.2753 16.2832 31.2753 16.4788C31.2917 16.5985 31.2717 16.7203 31.2179 16.8285C31.1606 16.9423 31.2179 17.0241 31.1606 17.1218C31.1117 17.3738 31.0459 17.6267 30.9885 17.8787L30.9152 18.1607V18.2369L30.8419 18.5377C30.793 18.7164 30.7479 18.8875 30.6867 19.0501C30.6256 19.2128 30.6379 19.2288 30.605 19.319C30.5109 19.6124 30.4085 19.9132 30.3107 20.2065C30.2922 20.2924 30.2605 20.3749 30.2167 20.451C30.0531 20.8741 29.8895 21.2652 29.7014 21.6883L29.5294 22.0794C29.4354 22.2824 29.3329 22.4865 29.2351 22.6736L21.7861 3.0625C24.6786 4.10894 27.5129 5.30969 30.2768 6.6596C30.4821 6.76978 30.6614 6.92273 30.8025 7.10812C30.9436 7.2935 31.0433 7.50701 31.0948 7.73422C31.1143 7.88286 31.1457 8.02968 31.1888 8.17328C31.2828 8.61234 31.3524 9.0608 31.4097 9.50832L31.4502 9.79037C31.4408 9.97402 31.4602 10.158 31.5075 10.3357V12.012C31.5445 12.0428 31.5733 12.0822 31.5914 12.1269C31.6094 12.1715 31.6162 12.2199 31.6109 12.2677Z" fill="url(#paint0_linear_16_38)"></path>
    <path opacity="0.6" d="M16.3218 30.9274L4.86952 20.6964L6.50542 30.4639C6.00619 29.7804 5.53987 29.064 5.11491 28.34C4.95978 28.0796 4.81217 27.8107 4.66457 27.5258C2.92674 24.41 1.78259 20.9986 1.29029 17.465C1.18123 16.7323 1.10758 15.9999 1.06935 15.2679C1.01659 14.6507 0.996193 14.0312 1.00824 13.412C1.00935 12.4658 1.05861 11.5204 1.15584 10.5792C1.14806 10.3656 1.17022 10.152 1.22166 9.94461V9.71708C1.31567 9.00067 1.43413 8.27674 1.5902 7.55469L16.3133 23.0158L16.3218 30.9274Z" fill="white"></path>
    <path d="M16.3213 30.9303L27.8149 20.6825L26.1743 30.4499C26.6735 29.7664 27.1399 29.05 27.5648 28.3261C27.7199 28.0656 27.8675 27.7967 28.0152 27.5119C29.7362 24.4039 30.8678 21.0044 31.3528 17.4849C31.4562 16.7522 31.5298 16.0198 31.5737 15.2878C31.5737 14.6607 31.6395 14.0345 31.6395 13.4319C31.6365 12.4803 31.5847 11.5294 31.4844 10.5831C31.4922 10.3696 31.47 10.1559 31.4186 9.94851V9.72099C31.3246 9.00458 31.2061 8.28065 31.05 7.55859L16.3298 23.0188L16.3213 30.9303Z" fill="white"></path>
    <path d="M48.3972 13.4854L45.084 22.7884L41.7708 13.4854H38.499L43.6521 26.8575H46.5074L51.6784 13.4609L48.3972 13.4854Z" fill="#37474F"></path>
    <path d="M65.7143 16.7581C65.2861 15.7403 64.5805 14.8633 63.6779 14.2272C62.7886 13.6755 61.7771 13.3513 60.7328 13.2831C59.6885 13.2149 58.6434 13.4048 57.6899 13.8361C57.2234 14.0852 56.7825 14.3797 56.3737 14.7151L56.0136 13.4779H53.3623V33.3701H56.6341V26.0452C56.9882 26.3048 57.3693 26.5255 57.7708 26.7033C58.5844 27.0148 59.4527 27.1587 60.3233 27.1264C61.5057 27.1675 62.6708 26.8342 63.6525 26.174C64.5569 25.5398 65.2631 24.6623 65.6889 23.643C66.1861 22.564 66.4455 21.3908 66.4497 20.2028C66.454 19.0148 66.2028 17.8397 65.7134 16.7572L65.7143 16.7581ZM62.1642 23.2698C61.9068 23.6431 61.5583 23.9445 61.1517 24.1454C60.7451 24.3463 60.294 24.4401 59.841 24.4177C59.1896 24.4633 58.5415 24.2904 57.9994 23.9263C57.4572 23.5623 57.0519 23.0279 56.8475 22.4076C56.6068 21.7032 56.4907 20.9623 56.5044 20.218C56.4913 19.4713 56.6074 18.728 56.8475 18.0208C57.0536 17.4291 57.4362 16.9149 57.9438 16.5475C58.5023 16.1691 59.168 15.9808 59.842 16.0107C60.2961 15.9917 60.7477 16.0886 61.1541 16.2922C61.5605 16.4958 61.9084 16.7995 62.1651 17.1746C62.7489 18.0792 63.0349 19.1437 62.9831 20.2189C63.0313 21.2885 62.7454 22.3465 62.1651 23.2463L62.1642 23.2698Z" fill="#37474F"></path>
    <path d="M79.3495 14.9839C79.2376 14.831 79.1144 14.6868 78.9809 14.5523C78.5233 14.1099 77.9784 13.7677 77.381 13.5477C76.7837 13.3277 76.147 13.2347 75.5117 13.2746C74.6647 13.2588 73.8253 13.437 73.0578 13.7955C72.667 13.9861 72.29 14.2038 71.9296 14.447L71.8723 13.4862H68.7236V26.8583H72.0697V17.1895C72.2684 16.9598 72.4888 16.7498 72.7278 16.5624C73.2834 16.1703 73.9543 15.9754 74.6336 16.0087C75.0219 15.9762 75.4123 16.041 75.7693 16.1973C76.1264 16.3535 76.4388 16.5963 76.6784 16.9037C77.1508 17.7488 77.3668 18.7132 77.2999 19.6791V26.8573H80.6046V19.4112C80.6757 17.8391 80.2368 16.2861 79.3532 14.9839H79.3495Z" fill="#37474F"></path>
    <path d="M68.7236 38.1573V31.8008H69.5886V38.1573H68.7236ZM72.0443 38.1573L69.7212 34.7877L72.0857 31.8008H73.1406L70.6867 34.7717L73.1406 38.1563L72.0443 38.1573Z" fill="#78909C"></path>
    <path d="M75.5537 38.2538C75.0907 38.2664 74.6327 38.154 74.2281 37.9285C73.8831 37.7229 73.6004 37.4275 73.4101 37.0739C73.2202 36.7099 73.1233 36.3045 73.1281 35.894C73.1254 35.499 73.2149 35.1088 73.3895 34.7545C73.5598 34.421 73.8171 34.1397 74.1341 33.9403C74.4649 33.7534 74.8352 33.6475 75.2148 33.6311C75.5944 33.6148 75.9725 33.6885 76.3181 33.8463C76.6022 33.9898 76.8382 34.2134 76.9969 34.4893C77.1754 34.7979 77.2634 35.1504 77.2508 35.5066C77.2508 35.5715 77.2508 35.6448 77.2508 35.7182V35.9457H73.979C73.9959 36.2854 74.097 36.6156 74.2732 36.9065C74.4215 37.1229 74.6287 37.2922 74.8702 37.3945C75.1321 37.4903 75.4094 37.5371 75.6882 37.5327C75.9093 37.5348 76.1299 37.513 76.3463 37.4678C76.5659 37.4275 76.7802 37.3619 76.9847 37.2723L77.0909 37.9153C76.883 38.0042 76.6698 38.0802 76.4525 38.1429C76.1607 38.2282 75.8565 38.2641 75.5528 38.2491L75.5537 38.2538ZM74.0495 35.3722H76.4046C76.4096 35.1831 76.3676 34.9957 76.2824 34.8269C76.2065 34.67 76.0795 34.5437 75.9223 34.4687C75.7298 34.3811 75.5197 34.3393 75.3084 34.3464C75.0119 34.3324 74.7207 34.4281 74.4904 34.6153C74.2701 34.8172 74.116 35.0811 74.0485 35.3722H74.0495Z" fill="#78909C"></path>
    <path d="M80.2332 38.2565C79.7676 38.27 79.3071 38.1576 78.9 37.9312C78.5524 37.7289 78.2689 37.4327 78.0821 37.0765C77.8922 36.7125 77.7953 36.3072 77.8 35.8966C77.7946 35.5022 77.8816 35.112 78.0539 34.7571C78.2273 34.4234 78.4871 34.1422 78.806 33.9429C79.1642 33.7295 79.5757 33.6223 79.9925 33.6336C80.3353 33.6274 80.6746 33.7029 80.9825 33.8536C81.2698 33.9959 81.5088 34.2195 81.6698 34.4967C81.8416 34.8076 81.9264 35.159 81.9152 35.514C81.9191 35.5844 81.9191 35.6551 81.9152 35.7255C81.9228 35.8012 81.9228 35.8774 81.9152 35.953H78.6434C78.659 36.2942 78.7633 36.6254 78.9461 36.9139C79.0927 37.1318 79.3004 37.3016 79.5431 37.4018C79.8046 37.4991 80.0821 37.546 80.3611 37.54C80.5781 37.5418 80.7947 37.5201 81.007 37.4752C81.2272 37.4372 81.4417 37.3715 81.6454 37.2796L81.76 37.9227C81.5521 38.0115 81.3389 38.0875 81.1217 38.1502C80.8323 38.2339 80.5313 38.2697 80.2304 38.2565H80.2332ZM78.7195 35.3748H81.0756C81.083 35.1864 81.0436 34.999 80.9609 34.8295C80.882 34.6749 80.7559 34.5494 80.6008 34.4713C80.4058 34.3833 80.1932 34.3414 79.9794 34.3491C79.683 34.3359 79.3921 34.4315 79.1614 34.618C78.9441 34.8223 78.7907 35.0852 78.7195 35.3748Z" fill="#78909C"></path>
    <path d="M82.7607 40.3522V33.7071H83.3991L83.5467 34.7244L83.3173 34.5617C83.4957 34.2828 83.7332 34.0466 84.0131 33.8698C84.3254 33.696 84.6786 33.609 85.036 33.6178C85.4088 33.609 85.775 33.7172 86.0833 33.9271C86.3754 34.1338 86.6069 34.4149 86.7536 34.7413C86.9143 35.111 86.9951 35.5106 86.9906 35.9137C86.9962 36.3153 86.9211 36.714 86.7696 37.0861C86.6275 37.4118 86.4002 37.693 86.1115 37.9003C85.7932 38.1144 85.4156 38.2226 85.0322 38.2096C84.6967 38.2125 84.3655 38.1344 84.0666 37.9821C83.7849 37.8476 83.5633 37.6129 83.4452 37.324L83.5759 37.1613V40.3109L82.7607 40.3522ZM84.8789 37.5195C85.056 37.5276 85.2325 37.4942 85.3944 37.422C85.5563 37.3499 85.6992 37.241 85.8116 37.104C86.0311 36.7525 86.1475 36.3464 86.1475 35.932C86.1475 35.5176 86.0311 35.1116 85.8116 34.7601C85.6992 34.6231 85.5563 34.5142 85.3944 34.442C85.2325 34.3699 85.056 34.3365 84.8789 34.3445C84.6417 34.3423 84.4079 34.4012 84.2001 34.5157C83.992 34.6423 83.8246 34.826 83.7178 35.045C83.5875 35.3221 83.5259 35.6265 83.5383 35.9325C83.5247 36.2464 83.5863 36.5591 83.7178 36.8445C83.8276 37.0569 83.9947 37.2345 84.2001 37.3569C84.41 37.4651 84.6429 37.5209 84.8789 37.5195Z" fill="#78909C"></path>
    <path d="M87.8408 32.7127V31.8008H88.6588V32.7127H87.8408ZM87.8408 38.1582V33.7093H88.6588V38.161L87.8408 38.1582Z" fill="#78909C"></path>
    <path d="M89.7803 38.1578V33.7061H90.4187L90.5822 34.5607L90.2635 34.43C90.5018 34.1437 90.8047 33.9181 91.1473 33.7719C91.4101 33.6777 91.6862 33.6256 91.9652 33.6177C92.2284 33.5911 92.494 33.6285 92.7396 33.7267C92.9851 33.8249 93.2033 33.9811 93.3755 34.1818C93.6746 34.6343 93.8209 35.1707 93.7929 35.7124V38.1569H92.975V35.7124C93.007 35.3481 92.9149 34.9836 92.7136 34.6782C92.5966 34.559 92.4541 34.4678 92.2968 34.4115C92.1395 34.3551 91.9715 34.3351 91.8054 34.3529C91.521 34.3513 91.2404 34.4184 90.9875 34.5485C90.8643 34.6114 90.7561 34.6998 90.67 34.808C90.5839 34.9162 90.5219 35.0415 90.4882 35.1756L90.5945 34.6792V38.1625L89.7803 38.1578Z" fill="#78909C"></path>
    <path d="M96.7178 40.4253C96.3472 40.4302 95.9778 40.3808 95.6215 40.2787C95.3349 40.2005 95.0749 40.0458 94.8694 39.8311C94.7761 39.7339 94.7031 39.6191 94.6547 39.4933C94.6063 39.3676 94.5834 39.2334 94.5874 39.0987C94.5812 38.8749 94.6537 38.656 94.7923 38.4801C94.9454 38.2941 95.1421 38.1488 95.3649 38.057C95.2398 37.9996 95.1282 37.9163 95.0377 37.8126C94.9651 37.7224 94.9247 37.6106 94.923 37.4948C94.9211 37.358 94.9674 37.2249 95.0537 37.1187C95.1571 36.9909 95.2967 36.8972 95.4542 36.8499C95.2075 36.6996 95.0089 36.482 94.8816 36.2228C94.7411 35.9514 94.6706 35.6492 94.6767 35.3437C94.6741 35.0366 94.7502 34.734 94.8976 34.4646C95.0468 34.2045 95.2647 33.9904 95.5275 33.846C95.8341 33.6825 96.1777 33.6012 96.5251 33.61C96.9183 33.6074 97.3022 33.7299 97.6213 33.9598C97.7715 33.871 97.934 33.8051 98.1036 33.7642C98.3085 33.7064 98.5207 33.6789 98.7335 33.6824H98.8069L98.7006 34.2277H98.2832C98.181 34.2345 98.0796 34.2509 97.9804 34.2766C98.2378 34.5654 98.3779 34.94 98.3734 35.3268C98.3791 35.6447 98.303 35.9587 98.1525 36.2387C98.0034 36.5059 97.7822 36.7258 97.5141 36.8734C97.2115 37.0399 96.8694 37.1215 96.5241 37.1093H96.2054L95.9233 37.0445C95.7842 37.0934 95.7109 37.1667 95.7109 37.2805C95.7142 37.3183 95.7273 37.3547 95.7489 37.386C95.7705 37.4173 95.7998 37.4425 95.834 37.4591C95.9535 37.5219 96.0841 37.5606 96.2186 37.5728L97.4126 37.7609C97.8153 37.8075 98.2002 37.9528 98.5333 38.184C98.6635 38.2855 98.7673 38.417 98.8357 38.5673C98.9041 38.7175 98.9352 38.8821 98.9263 39.047C98.936 39.327 98.8396 39.6004 98.6564 39.8123C98.4462 40.0329 98.1806 40.1929 97.8874 40.2758C97.5064 40.3798 97.1126 40.4292 96.7178 40.4225V40.4253ZM96.7911 39.7014C97.1209 39.7166 97.4501 39.6611 97.7567 39.5387C97.8554 39.5054 97.9414 39.4423 98.0028 39.3581C98.0643 39.274 98.0981 39.1729 98.0998 39.0687C98.101 38.9919 98.082 38.9161 98.0447 38.849C98.0074 38.7818 97.9531 38.7256 97.8874 38.686C97.6995 38.5724 97.4907 38.4975 97.2734 38.466L95.9807 38.2545C95.816 38.323 95.6659 38.4226 95.5388 38.5478C95.48 38.6034 95.4331 38.6702 95.4008 38.7444C95.3685 38.8185 95.3515 38.8985 95.3508 38.9793C95.3489 39.1003 95.385 39.2187 95.454 39.3181C95.523 39.4174 95.6213 39.4926 95.7353 39.5331C96.0649 39.6594 96.4167 39.7176 96.7695 39.7042L96.7911 39.7014ZM96.5297 36.4456C96.6805 36.4575 96.8319 36.4359 96.9733 36.3825C97.1147 36.329 97.2426 36.2449 97.3477 36.1363C97.5348 35.9073 97.6309 35.6174 97.6175 35.3221C97.6366 35.026 97.5398 34.734 97.3477 34.5079C97.2422 34.4003 97.114 34.3175 96.9726 34.2654C96.8311 34.2134 96.6799 34.1934 96.5297 34.207C96.3795 34.1922 96.2279 34.2116 96.0863 34.2637C95.9446 34.3158 95.8166 34.3993 95.7118 34.5079C95.5197 34.734 95.4229 35.026 95.442 35.3221C95.4286 35.6174 95.5247 35.9073 95.7118 36.1363C95.8101 36.249 95.9324 36.3383 96.0697 36.3975C96.207 36.4567 96.3559 36.4844 96.5053 36.4785L96.5297 36.4456Z" fill="#78909C"></path>
    <path d="M103.089 38.1573V35.4063L100.808 31.8008H101.789L103.695 34.8855H103.286L105.192 31.8008H106.173L103.923 35.4063V38.1573H103.089Z" fill="#78909C"></path>
    <path d="M107.842 38.2525C107.419 38.2639 107.002 38.1536 106.64 37.9347C106.317 37.7397 106.057 37.4574 105.888 37.1205C105.715 36.7539 105.626 36.3537 105.626 35.9486C105.626 35.5435 105.715 35.1433 105.888 34.7767C106.06 34.4419 106.32 34.1604 106.64 33.9625C107.004 33.7499 107.421 33.6428 107.842 33.6532C108.262 33.6417 108.675 33.7489 109.036 33.9625C109.361 34.158 109.624 34.4399 109.797 34.7767C109.969 35.1433 110.059 35.5435 110.059 35.9486C110.059 36.3537 109.969 36.7539 109.797 37.1205C109.627 37.4596 109.363 37.7424 109.036 37.9347C108.678 38.1545 108.263 38.265 107.842 38.2525ZM107.842 37.5201C108.033 37.5316 108.224 37.5002 108.401 37.4283C108.578 37.3564 108.737 37.2458 108.865 37.1045C109.099 36.7586 109.225 36.3504 109.225 35.9326C109.225 35.5149 109.099 35.1067 108.865 34.7607C108.591 34.4952 108.224 34.3467 107.843 34.3467C107.461 34.3467 107.094 34.4952 106.82 34.7607C106.586 35.1067 106.461 35.5149 106.461 35.9326C106.461 36.3504 106.586 36.7586 106.82 37.1045C106.949 37.2457 107.107 37.3562 107.284 37.4281C107.461 37.5 107.652 37.5315 107.842 37.5201Z" fill="#78909C"></path>
    <path d="M112.512 38.2526C112.201 38.2598 111.894 38.187 111.62 38.0411C111.37 37.8903 111.173 37.6656 111.056 37.398C110.914 37.0469 110.847 36.6699 110.86 36.2914V33.7031H111.678V36.0714C111.654 36.4458 111.739 36.8191 111.923 37.146C112.012 37.2775 112.135 37.382 112.28 37.4483C112.424 37.5146 112.583 37.5401 112.741 37.5221C112.987 37.526 113.23 37.4643 113.444 37.3435C113.665 37.2147 113.827 37.0044 113.895 36.7577L113.772 37.2053V33.7031H114.59V38.1548H113.853L113.69 37.2842L113.895 37.4384C113.776 37.7016 113.578 37.9214 113.329 38.0673C113.08 38.2132 112.792 38.2779 112.504 38.2526H112.512Z" fill="#78909C"></path>
    <path d="M119.753 38.2531C119.48 38.2509 119.207 38.2317 118.935 38.1957C118.69 38.1602 118.447 38.1087 118.208 38.0416C118.015 37.9892 117.827 37.9239 117.644 37.846L117.758 36.9265C117.952 37.0194 118.152 37.1011 118.355 37.171C118.603 37.2617 118.857 37.3324 119.116 37.3825C119.384 37.4423 119.659 37.4738 119.934 37.4765C120.276 37.4943 120.616 37.4155 120.915 37.249C121.033 37.176 121.129 37.0723 121.192 36.9491C121.256 36.8259 121.284 36.6878 121.275 36.5495C121.285 36.3394 121.222 36.1323 121.096 35.9638C120.948 35.79 120.76 35.6556 120.548 35.5727C120.247 35.4418 119.938 35.3303 119.624 35.2389C119.291 35.1479 118.967 35.0251 118.658 34.8722C118.378 34.7452 118.134 34.5515 117.946 34.3081C117.807 34.1035 117.716 33.8699 117.68 33.6249C117.644 33.3799 117.664 33.13 117.739 32.894C117.814 32.6581 117.942 32.4422 118.112 32.2627C118.283 32.0832 118.492 31.9449 118.724 31.858C119.119 31.7005 119.542 31.6256 119.968 31.638C120.359 31.6354 120.749 31.6819 121.129 31.7762C121.427 31.8462 121.718 31.947 121.996 32.0771L121.902 32.9966C121.593 32.8034 121.26 32.6528 120.912 32.5491C120.591 32.4646 120.261 32.4207 119.93 32.4184C119.606 32.4073 119.285 32.4802 118.997 32.6299C118.877 32.6971 118.779 32.797 118.714 32.9181C118.648 33.0391 118.619 33.1763 118.629 33.3134C118.624 33.5018 118.685 33.6859 118.801 33.8343C118.934 33.983 119.099 34.1 119.283 34.1765C119.549 34.2898 119.822 34.3841 120.101 34.4586C120.502 34.6003 120.888 34.78 121.255 34.9954C121.548 35.1411 121.8 35.3564 121.991 35.6225C122.167 35.899 122.256 36.2226 122.245 36.5504C122.25 36.806 122.197 37.0595 122.09 37.2913C121.986 37.5149 121.823 37.7062 121.62 37.8451C121.386 38.0139 121.122 38.1356 120.842 38.2033C120.483 38.2655 120.117 38.2822 119.753 38.2531Z" fill="#78909C"></path>
    <path d="M124.12 38.2562C123.867 38.2613 123.616 38.2025 123.392 38.0851C123.198 37.9767 123.036 37.8195 122.922 37.6292C122.806 37.4261 122.746 37.1955 122.75 36.9616C122.742 36.7334 122.798 36.5074 122.913 36.3101C123.029 36.1299 123.183 35.9771 123.364 35.8626C123.559 35.7444 123.768 35.6497 123.985 35.5805C124.22 35.5089 124.461 35.4573 124.705 35.4263C124.944 35.3946 125.185 35.3783 125.426 35.3774C125.443 35.2315 125.429 35.0836 125.385 34.9433C125.342 34.803 125.269 34.6735 125.172 34.5632C124.958 34.4187 124.702 34.3499 124.444 34.3677C124.264 34.3697 124.085 34.3943 123.912 34.441C123.679 34.5111 123.461 34.6212 123.266 34.7663L123.151 34.0988C123.354 33.9507 123.581 33.8378 123.822 33.765C124.086 33.6819 124.362 33.6379 124.64 33.6344C124.957 33.6215 125.272 33.6888 125.556 33.8299C125.8 33.9841 125.98 34.2211 126.063 34.4974C126.181 34.9127 126.233 35.3438 126.218 35.7751V36.6297C126.204 36.8059 126.204 36.9829 126.218 37.1591C126.227 37.2753 126.276 37.3849 126.357 37.4684C126.456 37.5421 126.578 37.5757 126.7 37.5624H126.782L126.652 38.2205H126.586C126.378 38.2255 126.171 38.1979 125.972 38.1387C125.844 38.0989 125.73 38.0224 125.645 37.9187C125.559 37.8103 125.49 37.6896 125.44 37.5605C125.271 37.7523 125.069 37.9117 124.843 38.0306C124.622 38.1611 124.375 38.2384 124.12 38.2562ZM124.275 37.5981C124.499 37.5936 124.72 37.5368 124.919 37.4321C125.117 37.3275 125.289 37.178 125.42 36.9955V35.9368C125.065 35.9413 124.711 35.9851 124.365 36.0675C124.14 36.1087 123.932 36.2164 123.768 36.3768C123.643 36.5272 123.576 36.7179 123.58 36.9137C123.57 37.0098 123.583 37.1068 123.617 37.1972C123.651 37.2876 123.706 37.3688 123.776 37.4345C123.916 37.5493 124.094 37.6073 124.275 37.5972V37.5981Z" fill="#78909C"></path>
    <path d="M127.728 38.1544V34.3457H126.983L127.098 33.7027H127.756V32.6525C127.738 32.3245 127.838 32.0009 128.038 31.7405C128.16 31.6171 128.307 31.5212 128.469 31.4594C128.632 31.3976 128.805 31.3713 128.978 31.3823C129.112 31.3726 129.246 31.3726 129.379 31.3823C129.486 31.4027 129.59 31.4342 129.69 31.4763L129.567 32.1598L129.346 32.1025C129.267 32.0932 129.188 32.0932 129.109 32.1025C129.033 32.0985 128.956 32.1102 128.885 32.1367C128.813 32.1632 128.747 32.204 128.692 32.2567C128.58 32.3937 128.527 32.5689 128.544 32.7446V33.7374H129.747V34.3805H128.544V38.191L127.728 38.1544Z" fill="#78909C"></path>
    <path d="M132.497 38.2545C132.031 38.268 131.571 38.1557 131.164 37.9292C130.816 37.727 130.532 37.4307 130.346 37.0746C130.156 36.7106 130.059 36.3052 130.064 35.8947C130.062 35.5007 130.149 35.1113 130.317 34.7552C130.495 34.3971 130.773 34.0986 131.118 33.8962C131.463 33.6939 131.859 33.5964 132.258 33.6157C132.601 33.6095 132.94 33.6849 133.248 33.8357C133.535 33.978 133.774 34.2016 133.935 34.4788C134.107 34.7896 134.192 35.141 134.181 35.496V35.9351H130.909C130.926 36.2748 131.027 36.605 131.203 36.896C131.35 37.1139 131.557 37.2837 131.8 37.3839C132.062 37.4812 132.339 37.5281 132.618 37.5221C132.835 37.5239 133.052 37.5022 133.264 37.4572C133.484 37.4193 133.699 37.3536 133.902 37.2617L134.017 37.9048C133.809 37.9936 133.596 38.0696 133.379 38.1323C133.093 38.2213 132.794 38.2626 132.495 38.2545H132.497ZM130.993 35.3729H133.349C133.354 35.1838 133.312 34.9964 133.226 34.8276C133.148 34.6729 133.021 34.5474 132.866 34.4694C132.674 34.3818 132.464 34.34 132.252 34.3471C131.956 34.3331 131.665 34.4288 131.434 34.616C131.214 34.8179 131.06 35.0818 130.993 35.3729Z" fill="#78909C"></path>
    <path d="M140.073 38.2554C139.501 38.2643 138.938 38.124 138.437 37.8483C137.962 37.5803 137.573 37.182 137.316 36.7004C137.053 36.153 136.917 35.5536 136.917 34.9465C136.917 34.3393 137.053 33.7399 137.316 33.1926C137.582 32.7265 137.97 32.3411 138.437 32.0775C138.94 31.8062 139.502 31.6641 140.073 31.6641C140.644 31.6641 141.206 31.8062 141.709 32.0775C142.181 32.3501 142.568 32.7473 142.83 33.2255C143.099 33.7709 143.239 34.3711 143.239 34.9794C143.239 35.5877 143.099 36.1878 142.83 36.7333C142.573 37.2149 142.184 37.6132 141.709 37.8812C141.206 38.1483 140.642 38.278 140.073 38.2573V38.2554ZM140.073 37.4412C140.504 37.4577 140.93 37.3444 141.295 37.1159C141.622 36.8933 141.88 36.5831 142.04 36.2209C142.367 35.42 142.367 34.5228 142.04 33.7219C141.88 33.3617 141.622 33.054 141.295 32.8344C140.923 32.616 140.5 32.5009 140.068 32.5009C139.637 32.5009 139.213 32.616 138.841 32.8344C138.51 33.0494 138.251 33.3584 138.097 33.7219C137.931 34.1177 137.846 34.5424 137.846 34.9714C137.846 35.4004 137.931 35.8251 138.097 36.2209C138.25 36.5866 138.51 36.8982 138.841 37.1159C139.209 37.3465 139.639 37.4603 140.073 37.4422V37.4412Z" fill="#78909C"></path>
    <path d="M144.048 38.1578V33.7061H144.686L144.85 34.5607L144.531 34.43C144.769 34.1437 145.072 33.9181 145.415 33.7719C145.677 33.677 145.954 33.6249 146.233 33.6177C146.496 33.5911 146.762 33.6285 147.007 33.7267C147.253 33.8249 147.471 33.9811 147.643 34.1818C147.942 34.6343 148.088 35.1707 148.061 35.7124V38.1569H147.243V35.7124C147.272 35.3471 147.177 34.9826 146.973 34.6782C146.858 34.5587 146.717 34.4672 146.561 34.4108C146.405 34.3544 146.238 34.3346 146.073 34.3529C145.788 34.3503 145.508 34.4174 145.255 34.5485C145.132 34.6114 145.024 34.6998 144.938 34.808C144.851 34.9162 144.789 35.0415 144.756 35.1756L144.85 34.6792V38.1625L144.048 38.1578Z" fill="#78909C"></path>
    <path d="M150.297 38.254C150.058 38.2644 149.82 38.2081 149.61 38.0914C149.454 37.9963 149.329 37.8578 149.25 37.6927C149.178 37.5316 149.142 37.3568 149.144 37.1803V31.3438H149.962V36.7027C149.956 36.8939 149.972 37.0851 150.01 37.2725C150.022 37.3279 150.046 37.3797 150.082 37.4236C150.118 37.4675 150.163 37.5021 150.215 37.5244C150.367 37.5735 150.526 37.5955 150.686 37.5893L150.571 38.2474L150.297 38.254Z" fill="#78909C"></path>
    <path d="M151.304 32.7127V31.8008H152.122V32.7127H151.304ZM151.304 38.1582V33.7093H152.122V38.161L151.304 38.1582Z" fill="#78909C"></path>
    <path d="M153.241 38.1578V33.7061H153.88L154.043 34.5607L153.724 34.43C153.963 34.1437 154.266 33.9181 154.608 33.7719C154.871 33.677 155.147 33.6249 155.426 33.6177C155.689 33.5911 155.955 33.6285 156.201 33.7267C156.446 33.8249 156.664 33.9811 156.836 34.1818C157.136 34.6343 157.282 35.1707 157.254 35.7124V38.1569H156.436V35.7124C156.465 35.3471 156.37 34.9826 156.166 34.6782C156.051 34.5587 155.91 34.4672 155.754 34.4108C155.598 34.3544 155.431 34.3346 155.266 34.3529C154.982 34.3503 154.701 34.4174 154.448 34.5485C154.325 34.6114 154.217 34.6998 154.131 34.808C154.045 34.9162 153.983 35.0415 153.949 35.1756L154.043 34.6792V38.1625L153.241 38.1578Z" fill="#78909C"></path>
    <path d="M82.8096 26.8604L85.427 8.14062H88.2475L92.8544 16.6868L97.4358 8.14062H100.266L102.876 26.8604H99.2927L97.6568 14.2856L92.8309 22.9211L87.9796 14.31L86.3437 26.8604H82.8096Z" fill="#246AA8"></path>
    <path d="M111.13 27.1587C109.703 27.216 108.287 26.8779 107.04 26.1818C105.988 25.5827 105.135 24.6884 104.586 23.6095C104.062 22.5377 103.785 21.3616 103.777 20.1684C103.768 18.9752 104.028 17.7953 104.537 16.7162C105.036 15.6948 105.806 14.8303 106.763 14.2172C107.841 13.564 109.086 13.2374 110.346 13.277C111.491 13.238 112.624 13.52 113.618 14.0912C114.457 14.5916 115.131 15.3275 115.556 16.2075C115.995 17.1156 116.216 18.1135 116.202 19.1221C116.202 19.4186 116.186 19.7149 116.153 20.0096C116.117 20.3258 116.062 20.6397 115.99 20.9498H107.351C107.443 21.6799 107.725 22.3731 108.169 22.9598C108.549 23.4609 109.054 23.8537 109.633 24.0993C110.21 24.3201 110.823 24.4304 111.441 24.4246C112.18 24.4325 112.916 24.3312 113.625 24.1238C114.275 23.9279 114.898 23.6545 115.482 23.3096L115.646 26.1301C115.036 26.437 114.394 26.6745 113.731 26.8381C112.882 27.0587 112.007 27.1664 111.13 27.1587ZM107.392 18.6614H112.832C112.826 18.2469 112.748 17.8365 112.602 17.4486C112.448 17.043 112.185 16.688 111.842 16.4228C111.422 16.1269 110.915 15.9805 110.402 16.0073C110.031 15.9879 109.659 16.0446 109.31 16.1739C108.961 16.3033 108.642 16.5025 108.373 16.7594C107.864 17.2829 107.523 17.946 107.392 18.6642V18.6614Z" fill="#246AA8"></path>
    <path d="M117.78 26.8576V13.4931H120.905L120.963 14.4333C121.32 14.2079 121.691 14.0066 122.075 13.8306C122.842 13.4692 123.681 13.2881 124.529 13.3013C125.26 13.2469 125.993 13.3746 126.662 13.6728C127.332 13.9711 127.917 14.4307 128.366 15.0105C129.249 16.3127 129.688 17.8657 129.617 19.4378V26.8529H126.279V19.6785C126.352 18.7149 126.135 17.7516 125.658 16.9115C125.421 16.6009 125.109 16.3552 124.752 16.1973C124.394 16.0393 124.002 15.9742 123.613 16.008C122.943 15.9813 122.284 16.1799 121.74 16.5721C121.503 16.7588 121.283 16.9658 121.082 17.1908C120.861 17.4427 121.082 26.8924 121.082 26.8924L117.78 26.8576Z" fill="#246AA8"></path>
    <path d="M135.851 27.1591C135.127 27.1917 134.41 27.0105 133.789 26.6382C133.281 26.3204 132.875 25.8636 132.619 25.322C132.37 24.801 132.242 24.2306 132.243 23.6532V16.2258H130.329L130.623 13.4908H132.259V10.5763L135.597 10.2266V13.4824H138.558V16.2173H135.597V22.273C135.58 22.7644 135.621 23.2561 135.72 23.7378C135.748 23.8756 135.816 24.0023 135.915 24.1025C136.013 24.2026 136.139 24.2719 136.277 24.3019C136.718 24.3897 137.168 24.4279 137.618 24.4156H138.534L138.24 27.1506L135.851 27.1591Z" fill="#246AA8"></path>
    <path d="M145.627 27.1602C144.313 27.2 143.015 26.87 141.88 26.2078C140.875 25.5973 140.057 24.7217 139.516 23.6769C138.97 22.6064 138.689 21.4199 138.698 20.218C138.689 19.0083 138.97 17.8139 139.516 16.7347C140.054 15.6833 140.873 14.8014 141.881 14.1868C143.029 13.5568 144.318 13.2266 145.628 13.2266C146.937 13.2266 148.226 13.5568 149.374 14.1868C150.382 14.8014 151.201 15.6833 151.739 16.7347C152.285 17.8139 152.566 19.0083 152.557 20.218C152.566 21.4199 152.285 22.6064 151.739 23.6769C151.198 24.7218 150.38 25.5975 149.374 26.2078C148.238 26.8689 146.94 27.1989 145.627 27.1602ZM145.627 24.4253C146.127 24.4573 146.627 24.3674 147.084 24.1631C147.542 23.9589 147.943 23.6465 148.252 23.2529C148.889 22.3726 149.21 21.3025 149.161 20.217C149.211 19.1189 148.891 18.0358 148.252 17.1408C147.93 16.7703 147.533 16.4733 147.086 16.2697C146.639 16.0661 146.154 15.9608 145.663 15.9608C145.172 15.9608 144.687 16.0661 144.241 16.2697C143.794 16.4733 143.396 16.7703 143.074 17.1408C142.43 18.0332 142.107 19.1176 142.158 20.217C142.108 21.3039 142.431 22.3753 143.074 23.2529C143.378 23.6337 143.768 23.9376 144.211 24.1398C144.655 24.342 145.14 24.4369 145.627 24.4168V24.4253Z" fill="#246AA8"></path>
    <path d="M153.978 26.862V13.4984H157.103L157.184 14.9143C157.607 14.4719 158.092 14.0934 158.624 13.7908C159.234 13.4167 159.937 13.2212 160.653 13.2267C160.853 13.2251 161.053 13.2414 161.25 13.2756L161.004 16.5314C160.812 16.4764 160.615 16.4408 160.416 16.4251H159.852C159.31 16.4195 158.775 16.5511 158.298 16.8078C157.882 17.0189 157.54 17.3509 157.316 17.7602V26.862H153.978Z" fill="#246AA8"></path>
    <defs>
        <linearGradient id="paint0_linear_16_38" x1="31.1508" y1="8.9066" x2="25.8182" y2="9.84555" gradientUnits="userSpaceOnUse">
            <stop offset="0.03" stop-color="white" stop-opacity="0.302"></stop>
            <stop offset="0.9" stop-color="#246AA8" stop-opacity="0"></stop>
        </linearGradient>
    </defs>
</svg>