<svg class="mobile" width="147" height="37" viewBox="0 0 147 37" fill="none" xmlns="http://www.w3.org/2000/svg">
    <path d="M44.1177 12.01L41.1675 20.2941L38.2172 12.01H35.3037L39.8924 23.9175H42.435L47.0396 11.9883L44.1177 12.01Z" fill="white"></path>
    <path d="M59.5372 14.9229C59.156 14.0166 58.5276 13.2356 57.7238 12.6692C56.9319 12.1779 56.0312 11.8892 55.1013 11.8285C54.1714 11.7677 53.2408 11.9369 52.3917 12.3209C51.9763 12.5428 51.5837 12.8049 51.2196 13.1037L50.899 12.0019H48.5381V29.7154H51.4515V23.1928C51.7669 23.424 52.1062 23.6205 52.4637 23.7788C53.1883 24.0562 53.9614 24.1844 54.7367 24.1556C55.7895 24.1922 56.8271 23.8954 57.7012 23.3075C58.5066 22.7428 59.1354 21.9613 59.5146 21.0537C59.9573 20.0929 60.1884 19.0482 60.1921 17.9903C60.1959 16.9324 59.9722 15.886 59.5364 14.9221L59.5372 14.9229ZM56.3759 20.7214C56.1467 21.0538 55.8364 21.3222 55.4743 21.5011C55.1123 21.68 54.7106 21.7635 54.3072 21.7436C53.7271 21.7842 53.1501 21.6302 52.6673 21.306C52.1845 20.9818 51.8236 20.506 51.6416 19.9537C51.4272 19.3264 51.3238 18.6666 51.336 18.0038C51.3244 17.3389 51.4278 16.677 51.6416 16.0473C51.8251 15.5204 52.1658 15.0625 52.6178 14.7354C53.1151 14.3984 53.7079 14.2308 54.3081 14.2574C54.7125 14.2405 55.1146 14.3267 55.4765 14.508C55.8384 14.6893 56.1482 14.9598 56.3768 15.2938C56.8966 16.0992 57.1513 17.0472 57.1051 18.0047C57.1481 18.9571 56.8935 19.8992 56.3768 20.7004L56.3759 20.7214Z" fill="white"></path>
    <path d="M71.6798 13.3426C71.5802 13.2065 71.4705 13.078 71.3516 12.9583C70.9441 12.5643 70.4589 12.2596 69.927 12.0637C69.395 11.8678 68.8281 11.785 68.2624 11.8205C67.5081 11.8065 66.7607 11.9651 66.0773 12.2843C65.7292 12.454 65.3935 12.6479 65.0726 12.8645L65.0216 12.0089H62.2178V23.9164H65.1974V15.3066C65.3743 15.1021 65.5705 14.9151 65.7834 14.7482C66.2782 14.399 66.8756 14.2254 67.4804 14.2551C67.8263 14.2262 68.1739 14.2839 68.4918 14.423C68.8097 14.5622 69.0879 14.7784 69.3013 15.0521C69.722 15.8047 69.9143 16.6635 69.8547 17.5235V23.9156H72.7975V17.2849C72.8608 15.885 72.4699 14.5022 71.6831 13.3426H71.6798Z" fill="white"></path>
    <path d="M62.2178 33.9767V28.3164H62.988V33.9767H62.2178ZM65.1748 33.9767L63.106 30.9762L65.2116 28.3164H66.1509L63.9658 30.962L66.1509 33.9759L65.1748 33.9767Z" fill="#B0BBCB"></path>
    <path d="M68.2998 34.0637C67.8874 34.0749 67.4796 33.9748 67.1193 33.774C66.8121 33.5909 66.5604 33.3279 66.391 33.013C66.2218 32.6888 66.1356 32.3279 66.1398 31.9623C66.1374 31.6106 66.2171 31.2631 66.3725 30.9476C66.5243 30.6506 66.7533 30.4002 67.0356 30.2226C67.3302 30.0562 67.6599 29.9618 67.998 29.9473C68.336 29.9327 68.6726 29.9984 68.9804 30.1389C69.2334 30.2667 69.4435 30.4658 69.5849 30.7115C69.7438 30.9862 69.8222 31.3002 69.8109 31.6174C69.8109 31.6751 69.8109 31.7404 69.8109 31.8057V32.0083H66.8975C66.9125 32.3109 67.0026 32.6049 67.1595 32.864C67.2916 33.0566 67.476 33.2074 67.6911 33.2985C67.9243 33.3838 68.1712 33.4255 68.4195 33.4215C68.6163 33.4234 68.8128 33.404 69.0055 33.3638C69.2011 33.3279 69.3919 33.2694 69.574 33.1896L69.6686 33.7623C69.4834 33.8414 69.2936 33.909 69.1001 33.9649C68.8402 34.0409 68.5694 34.0728 68.2989 34.0595L68.2998 34.0637ZM66.9602 31.4976H69.0574C69.0619 31.3293 69.0245 31.1624 68.9486 31.0121C68.881 30.8724 68.768 30.7599 68.628 30.6931C68.4565 30.6152 68.2694 30.5779 68.0813 30.5843C67.8173 30.5718 67.558 30.657 67.3529 30.8237C67.1567 31.0035 67.0195 31.2384 66.9594 31.4976H66.9602Z" fill="#B0BBCB"></path>
    <path d="M72.4667 34.0625C72.0521 34.0746 71.642 33.9745 71.2795 33.7729C70.97 33.5928 70.7175 33.329 70.5512 33.0119C70.3821 32.6877 70.2958 32.3268 70.3 31.9612C70.2952 31.61 70.3726 31.2625 70.5261 30.9465C70.6805 30.6493 70.9118 30.3989 71.1958 30.2215C71.5148 30.0314 71.8812 29.9359 72.2524 29.946C72.5576 29.9405 72.8598 30.0077 73.1339 30.1419C73.3897 30.2686 73.6025 30.4678 73.7459 30.7146C73.8989 30.9914 73.9744 31.3043 73.9644 31.6204C73.9679 31.6832 73.9679 31.7461 73.9644 31.8088C73.9712 31.8762 73.9712 31.944 73.9644 32.0114H71.051C71.0649 32.3152 71.1578 32.6101 71.3206 32.867C71.4511 33.0611 71.636 33.2123 71.8522 33.3015C72.085 33.3882 72.3322 33.4299 72.5805 33.4246C72.7738 33.4262 72.9666 33.4068 73.1557 33.3668C73.3518 33.333 73.5428 33.2745 73.7242 33.1927L73.8263 33.7653C73.6411 33.8444 73.4513 33.9121 73.2578 33.9679C73.0002 34.0424 72.7321 34.0744 72.4642 34.0625H72.4667ZM71.1188 31.4965H73.2168C73.2234 31.3287 73.1883 31.1619 73.1147 31.011C73.0444 30.8732 72.9321 30.7615 72.794 30.692C72.6204 30.6136 72.431 30.5763 72.2406 30.5832C71.9768 30.5714 71.7177 30.6565 71.5123 30.8226C71.3188 31.0045 71.1821 31.2386 71.1188 31.4965Z" fill="#B0BBCB"></path>
    <path d="M74.7178 35.9349V30.0176H75.2862L75.4177 30.9234L75.2134 30.7786C75.3722 30.5302 75.5837 30.3199 75.8329 30.1624C76.1111 30.0077 76.4256 29.9302 76.7438 29.938C77.0758 29.9302 77.4019 30.0266 77.6764 30.2135C77.9366 30.3975 78.1427 30.6479 78.2734 30.9385C78.4164 31.2677 78.4884 31.6235 78.4843 31.9825C78.4893 32.3401 78.4224 32.6952 78.2876 33.0265C78.161 33.3165 77.9586 33.5669 77.7015 33.7515C77.4181 33.9421 77.0818 34.0385 76.7404 34.0269C76.4417 34.0295 76.1468 33.96 75.8806 33.8243C75.6298 33.7045 75.4325 33.4956 75.3273 33.2383L75.4436 33.0934V35.8981L74.7178 35.9349ZM76.604 33.4124C76.7617 33.4196 76.9188 33.3899 77.063 33.3256C77.2072 33.2614 77.3344 33.1644 77.4345 33.0424C77.63 32.7294 77.7336 32.3678 77.7336 31.9988C77.7336 31.6298 77.63 31.2682 77.4345 30.9552C77.3344 30.8332 77.2072 30.7362 77.063 30.672C76.9188 30.6077 76.7617 30.578 76.604 30.5852C76.3927 30.5832 76.1846 30.6357 75.9995 30.7376C75.8142 30.8503 75.6651 31.0139 75.57 31.2089C75.454 31.4557 75.3991 31.7268 75.4101 31.9992C75.398 32.2788 75.4529 32.5572 75.57 32.8113C75.6678 33.0005 75.8166 33.1586 75.9995 33.2676C76.1864 33.364 76.3938 33.4136 76.604 33.4124Z" fill="#B0BBCB"></path>
    <path d="M79.2412 29.1285V28.3164H79.9696V29.1285H79.2412ZM79.2412 33.9775V30.0159H79.9696V33.9801L79.2412 33.9775Z" fill="#B0BBCB"></path>
    <path d="M80.9678 33.976V30.0119H81.5362L81.6819 30.7729L81.3981 30.6565C81.6103 30.4016 81.88 30.2007 82.1851 30.0705C82.4191 29.9866 82.6649 29.9402 82.9134 29.9332C83.1477 29.9095 83.3843 29.9428 83.603 30.0303C83.8216 30.1177 84.0159 30.2568 84.1692 30.4355C84.4356 30.8385 84.5658 31.3161 84.5409 31.7985V33.9752H83.8126V31.7985C83.8411 31.474 83.759 31.1495 83.5798 30.8776C83.4756 30.7714 83.3487 30.6902 83.2087 30.64C83.0686 30.5899 82.919 30.572 82.7711 30.5879C82.5178 30.5864 82.268 30.6462 82.0427 30.762C81.9331 30.818 81.8367 30.8968 81.76 30.9931C81.6834 31.0894 81.6282 31.201 81.5982 31.3204L81.6928 30.8784V33.9802L80.9678 33.976Z" fill="#B0BBCB"></path>
    <path d="M87.1446 35.9991C86.8145 36.0035 86.4857 35.9595 86.1684 35.8685C85.9131 35.7989 85.6816 35.6611 85.4986 35.47C85.4155 35.3834 85.3505 35.2812 85.3074 35.1692C85.2643 35.0572 85.2439 34.9378 85.2475 34.8178C85.242 34.6185 85.3066 34.4236 85.43 34.267C85.5663 34.1013 85.7415 33.9719 85.9398 33.8902C85.8284 33.8391 85.7291 33.7649 85.6485 33.6725C85.5838 33.5922 85.5479 33.4926 85.5463 33.3896C85.5447 33.2678 85.5859 33.1492 85.6627 33.0547C85.7548 32.9408 85.8791 32.8574 86.0194 32.8152C85.7997 32.6815 85.6228 32.4877 85.5095 32.2568C85.3843 32.0152 85.3216 31.7461 85.327 31.4741C85.3247 31.2006 85.3924 30.9311 85.5237 30.6913C85.6566 30.4596 85.8506 30.269 86.0847 30.1404C86.3576 29.9948 86.6637 29.9224 86.9729 29.9303C87.3231 29.928 87.665 30.037 87.9491 30.2417C88.0828 30.1626 88.2276 30.1039 88.3786 30.0676C88.561 30.0161 88.75 29.9916 88.9395 29.9947H89.0048L88.9102 30.4803H88.5385C88.4475 30.4864 88.3572 30.501 88.2689 30.5238C88.4981 30.781 88.6229 31.1145 88.6189 31.459C88.6239 31.7421 88.5562 32.0217 88.4221 32.2711C88.2894 32.509 88.0924 32.7048 87.8537 32.8362C87.5842 32.9845 87.2795 33.0571 86.9721 33.0463H86.6883L86.4371 32.9885C86.3132 33.0321 86.2479 33.0974 86.2479 33.1987C86.2509 33.2324 86.2626 33.2648 86.2818 33.2927C86.301 33.3206 86.3271 33.343 86.3576 33.3578C86.464 33.4137 86.5803 33.4481 86.7 33.4591L87.7632 33.6265C88.1218 33.668 88.4646 33.7974 88.7612 34.0032C88.8772 34.0936 88.9696 34.2107 89.0305 34.3445C89.0914 34.4784 89.1191 34.625 89.1111 34.7718C89.1198 35.0211 89.034 35.2645 88.8709 35.4533C88.6836 35.6496 88.4471 35.7922 88.186 35.866C87.8468 35.9586 87.4961 36.0025 87.1446 35.9966V35.9991ZM87.2099 35.3545C87.5035 35.368 87.7966 35.3186 88.0697 35.2096C88.1576 35.1799 88.2341 35.1237 88.2888 35.0488C88.3436 34.9739 88.3737 34.8838 88.3752 34.791C88.3763 34.7227 88.3593 34.6552 88.3261 34.5954C88.2929 34.5356 88.2446 34.4856 88.186 34.4503C88.0187 34.3491 87.8328 34.2825 87.6393 34.2544L86.4882 34.066C86.3415 34.1271 86.2079 34.2157 86.0947 34.3272C86.0424 34.3767 86.0006 34.4363 85.9718 34.5023C85.943 34.5683 85.9279 34.6395 85.9273 34.7115C85.9256 34.8192 85.9577 34.9247 86.0192 35.0131C86.0806 35.1016 86.1682 35.1686 86.2697 35.2046C86.5632 35.3171 86.8765 35.3689 87.1906 35.357L87.2099 35.3545ZM86.9771 32.4553C87.1113 32.4659 87.2462 32.4467 87.3721 32.399C87.498 32.3514 87.6119 32.2766 87.7055 32.1798C87.8721 31.976 87.9577 31.7178 87.9458 31.4548C87.9627 31.1911 87.8766 30.9312 87.7055 30.7298C87.6115 30.634 87.4974 30.5602 87.3714 30.5139C87.2455 30.4676 87.1108 30.4498 86.9771 30.4619C86.8434 30.4487 86.7084 30.4659 86.5822 30.5123C86.4561 30.5587 86.3421 30.6331 86.2488 30.7298C86.0777 30.9312 85.9915 31.1911 86.0085 31.4548C85.9966 31.7178 86.0821 31.976 86.2488 32.1798C86.3363 32.2802 86.4452 32.3597 86.5674 32.4124C86.6897 32.4652 86.8223 32.4898 86.9553 32.4846L86.9771 32.4553Z" fill="#B0BBCB"></path>
    <path d="M92.818 33.9767V31.5271L90.7861 28.3164H91.6602L93.3572 31.0633H92.993L94.69 28.3164H95.564L93.5606 31.5271V33.9767H92.818Z" fill="#B0BBCB"></path>
    <path d="M97.0507 34.0651C96.6741 34.0752 96.3024 33.977 95.98 33.7821C95.6928 33.6084 95.4606 33.3571 95.3102 33.0571C95.1567 32.7306 95.0771 32.3743 95.0771 32.0135C95.0771 31.6528 95.1567 31.2964 95.3102 30.9699C95.4633 30.6718 95.6949 30.4212 95.98 30.2449C96.3044 30.0556 96.6752 29.9603 97.0507 29.9695C97.424 29.9593 97.7926 30.0548 98.114 30.2449C98.4027 30.419 98.6372 30.6701 98.7913 30.9699C98.9448 31.2964 99.0243 31.6528 99.0243 32.0135C99.0243 32.3743 98.9448 32.7306 98.7913 33.0571C98.6402 33.359 98.4049 33.6108 98.114 33.7821C97.7946 33.9778 97.4251 34.0762 97.0507 34.0651ZM97.0507 33.4129C97.2206 33.4231 97.3905 33.3952 97.5481 33.3312C97.7058 33.2671 97.847 33.1686 97.9616 33.0428C98.1701 32.7348 98.2816 32.3713 98.2816 31.9993C98.2816 31.6273 98.1701 31.2638 97.9616 30.9557C97.7175 30.7193 97.391 30.587 97.0512 30.587C96.7113 30.587 96.3848 30.7193 96.1407 30.9557C95.9322 31.2638 95.8208 31.6273 95.8208 31.9993C95.8208 32.3713 95.9322 32.7348 96.1407 33.0428C96.2552 33.1685 96.3963 33.267 96.5538 33.331C96.7113 33.395 96.8811 33.423 97.0507 33.4129Z" fill="#B0BBCB"></path>
    <path d="M101.21 34.0629C100.933 34.0693 100.66 34.0045 100.416 33.8746C100.193 33.7403 100.018 33.5402 99.9136 33.3019C99.7871 32.9893 99.7275 32.6536 99.7386 32.3165V30.0117H100.467V32.1206C100.446 32.454 100.522 32.7864 100.685 33.0775C100.765 33.1946 100.874 33.2877 101.003 33.3467C101.131 33.4057 101.273 33.4285 101.414 33.4124C101.633 33.4159 101.849 33.361 102.04 33.2534C102.237 33.1387 102.381 32.9514 102.441 32.7318L102.331 33.1303V30.0117H103.06V33.9759H102.404L102.259 33.2006L102.441 33.3379C102.335 33.5723 102.159 33.768 101.938 33.8979C101.716 34.0278 101.459 34.0855 101.203 34.0629H101.21Z" fill="#B0BBCB"></path>
    <path d="M107.657 34.0636C107.413 34.0616 107.17 34.0445 106.929 34.0125C106.71 33.9809 106.493 33.935 106.281 33.8752C106.109 33.8286 105.942 33.7704 105.778 33.7011L105.88 32.8823C106.053 32.9651 106.231 33.0377 106.412 33.1C106.632 33.1808 106.859 33.2438 107.089 33.2883C107.329 33.3416 107.573 33.3697 107.818 33.3721C108.122 33.3879 108.425 33.3177 108.692 33.1695C108.797 33.1045 108.882 33.0122 108.938 32.9024C108.995 32.7927 109.02 32.6697 109.012 32.5466C109.021 32.3595 108.965 32.1751 108.853 32.025C108.721 31.8702 108.553 31.7506 108.364 31.6767C108.097 31.5602 107.822 31.4609 107.541 31.3795C107.245 31.2985 106.957 31.1891 106.682 31.053C106.433 30.9399 106.215 30.7674 106.048 30.5507C105.924 30.3685 105.843 30.1604 105.811 29.9423C105.779 29.7242 105.797 29.5016 105.864 29.2915C105.93 29.0814 106.044 28.8891 106.196 28.7293C106.348 28.5695 106.534 28.4463 106.74 28.369C107.092 28.2287 107.469 28.162 107.848 28.1731C108.196 28.1707 108.544 28.2121 108.882 28.2961C109.148 28.3584 109.406 28.4482 109.654 28.564L109.57 29.3828C109.295 29.2108 108.999 29.0767 108.688 28.9843C108.403 28.9091 108.109 28.87 107.814 28.8679C107.526 28.8581 107.24 28.923 106.984 29.0563C106.877 29.1161 106.789 29.2051 106.731 29.3129C106.673 29.4207 106.647 29.5428 106.656 29.6649C106.651 29.8326 106.706 29.9966 106.809 30.1288C106.927 30.2612 107.074 30.3653 107.238 30.4335C107.475 30.5344 107.718 30.6184 107.967 30.6847C108.324 30.8108 108.668 30.9709 108.994 31.1627C109.255 31.2925 109.48 31.4842 109.65 31.7211C109.807 31.9673 109.886 32.2555 109.876 32.5474C109.881 32.775 109.833 33.0007 109.737 33.2071C109.645 33.4062 109.5 33.5766 109.319 33.7002C109.111 33.8506 108.876 33.9589 108.626 34.0192C108.306 34.0746 107.981 34.0895 107.657 34.0636Z" fill="#B0BBCB"></path>
    <path d="M111.548 34.0624C111.322 34.0669 111.099 34.0145 110.9 33.91C110.727 33.8134 110.583 33.6735 110.481 33.5039C110.378 33.3231 110.325 33.1178 110.328 32.9095C110.321 32.7063 110.371 32.5051 110.474 32.3294C110.577 32.1689 110.713 32.0329 110.875 31.9309C111.048 31.8256 111.234 31.7413 111.428 31.6797C111.637 31.6159 111.852 31.57 112.069 31.5424C112.282 31.5142 112.496 31.4996 112.711 31.4989C112.726 31.3689 112.714 31.2372 112.675 31.1123C112.636 30.9874 112.571 30.872 112.484 30.7738C112.294 30.6451 112.066 30.5838 111.836 30.5997C111.676 30.6015 111.517 30.6234 111.363 30.665C111.156 30.7274 110.961 30.8254 110.787 30.9547L110.685 30.3603C110.866 30.2284 111.068 30.1279 111.282 30.0631C111.518 29.989 111.763 29.9498 112.011 29.9467C112.293 29.9353 112.574 29.9952 112.827 30.1208C113.044 30.2581 113.204 30.4692 113.278 30.7152C113.383 31.085 113.43 31.4689 113.416 31.853V32.614C113.403 32.7709 113.403 32.9285 113.416 33.0853C113.424 33.1889 113.468 33.2864 113.54 33.3608C113.628 33.4265 113.737 33.4564 113.846 33.4445H113.919L113.802 34.0305H113.744C113.559 34.035 113.374 34.0104 113.197 33.9577C113.083 33.9223 112.981 33.8542 112.906 33.7618C112.829 33.6653 112.767 33.5577 112.723 33.4428C112.573 33.6136 112.393 33.7555 112.191 33.8614C111.995 33.9776 111.775 34.0465 111.548 34.0624ZM111.686 33.4763C111.886 33.4723 112.082 33.4217 112.259 33.3285C112.436 33.2354 112.589 33.1022 112.705 32.9397V31.997C112.389 32.001 112.074 32.04 111.766 32.1134C111.565 32.15 111.38 32.2459 111.235 32.3888C111.123 32.5227 111.063 32.6925 111.067 32.8668C111.058 32.9524 111.07 33.0388 111.1 33.1193C111.13 33.1998 111.179 33.2721 111.242 33.3306C111.367 33.4328 111.525 33.4845 111.686 33.4755V33.4763Z" fill="#B0BBCB"></path>
    <path d="M114.76 33.9783V30.5868H114.097L114.199 30.0141H114.785V29.079C114.769 28.7869 114.858 28.4988 115.036 28.2669C115.145 28.157 115.276 28.0716 115.42 28.0166C115.564 27.9616 115.719 27.9381 115.873 27.9479C115.992 27.9392 116.111 27.9392 116.23 27.9479C116.325 27.966 116.418 27.9941 116.507 28.0316L116.397 28.6403L116.201 28.5892C116.13 28.581 116.06 28.581 115.99 28.5892C115.922 28.5857 115.854 28.5961 115.79 28.6197C115.726 28.6433 115.667 28.6796 115.618 28.7265C115.519 28.8485 115.472 29.0046 115.486 29.161V30.0451H116.557V30.6177H115.486V34.0109L114.76 33.9783Z" fill="#B0BBCB"></path>
    <path d="M119.006 34.0626C118.591 34.0746 118.181 33.9745 117.819 33.7729C117.509 33.5928 117.257 33.329 117.09 33.0119C116.921 32.6877 116.835 32.3268 116.839 31.9612C116.838 31.6104 116.915 31.2637 117.065 30.9465C117.223 30.6277 117.471 30.3619 117.778 30.1817C118.085 30.0014 118.438 29.9146 118.793 29.9318C119.098 29.9263 119.4 29.9935 119.675 30.1277C119.93 30.2544 120.143 30.4536 120.287 30.7004C120.44 30.9772 120.515 31.2901 120.505 31.6062V31.9972H117.592C117.607 32.2997 117.697 32.5937 117.854 32.8528C117.984 33.0469 118.169 33.1981 118.385 33.2873C118.618 33.3739 118.865 33.4157 119.114 33.4104C119.307 33.412 119.5 33.3926 119.689 33.3526C119.885 33.3188 120.076 33.2603 120.257 33.1785L120.359 33.7511C120.174 33.8302 119.984 33.8979 119.791 33.9537C119.536 34.033 119.271 34.0697 119.004 34.0626H119.006ZM117.666 31.4966H119.764C119.769 31.3282 119.731 31.1613 119.655 31.011C119.585 30.8733 119.473 30.7615 119.335 30.692C119.163 30.6141 118.976 30.5768 118.788 30.5832C118.524 30.5707 118.265 30.6559 118.06 30.8226C117.863 31.0024 117.726 31.2373 117.666 31.4966Z" fill="#B0BBCB"></path>
    <path d="M125.753 34.0647C125.244 34.0727 124.742 33.9477 124.296 33.7022C123.873 33.4635 123.526 33.1089 123.298 32.68C123.064 32.1926 122.942 31.6589 122.942 31.1182C122.942 30.5775 123.064 30.0438 123.298 29.5564C123.535 29.1414 123.88 28.7982 124.296 28.5635C124.743 28.3218 125.244 28.1953 125.753 28.1953C126.261 28.1953 126.762 28.3218 127.209 28.5635C127.63 28.8062 127.975 29.1599 128.207 29.5857C128.447 30.0714 128.572 30.6058 128.572 31.1475C128.572 31.6892 128.447 32.2236 128.207 32.7093C127.979 33.1382 127.633 33.4928 127.209 33.7315C126.762 33.9693 126.259 34.0849 125.753 34.0664V34.0647ZM125.753 33.3397C126.136 33.3544 126.515 33.2535 126.841 33.0501C127.132 32.8518 127.362 32.5756 127.504 32.253C127.795 31.5399 127.795 30.7409 127.504 30.0278C127.362 29.707 127.132 29.433 126.841 29.2374C126.51 29.043 126.133 28.9405 125.748 28.9405C125.364 28.9405 124.987 29.043 124.656 29.2374C124.361 29.4289 124.13 29.7041 123.993 30.0278C123.846 30.3802 123.77 30.7584 123.77 31.1404C123.77 31.5224 123.846 31.9006 123.993 32.253C124.13 32.5787 124.361 32.8562 124.656 33.0501C124.984 33.2554 125.366 33.3567 125.753 33.3406V33.3397Z" fill="#B0BBCB"></path>
    <path d="M129.292 33.976V30.0119H129.86L130.006 30.7729L129.722 30.6565C129.934 30.4016 130.204 30.2007 130.509 30.0705C130.743 29.986 130.989 29.9396 131.238 29.9332C131.472 29.9095 131.709 29.9428 131.927 30.0303C132.146 30.1177 132.34 30.2568 132.493 30.4355C132.76 30.8385 132.89 31.3161 132.865 31.7985V33.9752H132.137V31.7985C132.163 31.4732 132.078 31.1486 131.897 30.8776C131.794 30.7711 131.669 30.6897 131.53 30.6395C131.391 30.5892 131.242 30.5716 131.095 30.5879C130.842 30.5855 130.592 30.6453 130.367 30.762C130.257 30.818 130.161 30.8968 130.084 30.9931C130.008 31.0894 129.952 31.201 129.922 31.3204L130.006 30.8784V33.9802L129.292 33.976Z" fill="#B0BBCB"></path>
    <path d="M134.856 34.0636C134.643 34.0728 134.431 34.0227 134.244 33.9187C134.105 33.8341 133.994 33.7108 133.924 33.5638C133.86 33.4203 133.827 33.2646 133.829 33.1075V27.9102H134.558V32.6822C134.552 32.8524 134.567 33.0227 134.601 33.1895C134.611 33.2389 134.633 33.2851 134.665 33.3241C134.697 33.3632 134.737 33.394 134.784 33.4139C134.919 33.4576 135.06 33.4772 135.202 33.4717L135.1 34.0577L134.856 34.0636Z" fill="#B0BBCB"></path>
    <path d="M135.753 29.1285V28.3164H136.481V29.1285H135.753ZM135.753 33.9775V30.0159H136.481V33.9801L135.753 33.9775Z" fill="#B0BBCB"></path>
    <path d="M137.479 33.976V30.0119H138.048L138.194 30.7729L137.91 30.6565C138.122 30.4016 138.392 30.2007 138.697 30.0705C138.931 29.986 139.177 29.9396 139.425 29.9332C139.659 29.9095 139.896 29.9428 140.115 30.0303C140.333 30.1177 140.528 30.2568 140.681 30.4355C140.947 30.8385 141.078 31.3161 141.053 31.7985V33.9752H140.324V31.7985C140.351 31.4732 140.266 31.1486 140.084 30.8776C139.982 30.7711 139.856 30.6897 139.717 30.6395C139.578 30.5892 139.43 30.5716 139.283 30.5879C139.029 30.5855 138.779 30.6453 138.554 30.762C138.445 30.818 138.348 30.8968 138.272 30.9931C138.195 31.0894 138.14 31.201 138.11 31.3204L138.194 30.8784V33.9802L137.479 33.976Z" fill="#B0BBCB"></path>
    <path d="M143.962 34.0624C143.549 34.0737 143.141 33.9736 142.781 33.7728C142.474 33.5897 142.222 33.3267 142.053 33.0118C141.878 32.6886 141.783 32.3283 141.776 31.9611C141.774 31.6093 141.854 31.2619 142.009 30.9464C142.161 30.6494 142.39 30.3989 142.672 30.2214C142.992 30.0321 143.358 29.9366 143.729 29.9459C144.036 29.9404 144.34 30.0075 144.617 30.1418C144.87 30.2697 145.08 30.4688 145.221 30.7145C145.397 31.0511 145.472 31.4306 145.44 31.8087V32.0113H142.53C142.545 32.3138 142.635 32.6078 142.792 32.8669C142.924 33.0596 143.108 33.2104 143.324 33.3014C143.557 33.3867 143.804 33.4284 144.052 33.4245C144.249 33.4264 144.445 33.407 144.638 33.3667C144.834 33.3308 145.024 33.2724 145.206 33.1926L145.301 33.7652C145.118 33.8433 144.931 33.9109 144.74 33.9678C144.489 34.0393 144.229 34.0712 143.968 34.0624H143.962ZM142.622 31.4964H144.691C144.695 31.328 144.657 31.1611 144.581 31.0108C144.513 30.8712 144.4 30.7587 144.26 30.6919C144.089 30.6132 143.902 30.5759 143.714 30.583C143.45 30.5705 143.19 30.6558 142.985 30.8225C142.789 31.0022 142.652 31.2372 142.592 31.4964H142.622Z" fill="#B0BBCB"></path>
    <path d="M74.7607 23.9156L77.0915 7.24609H79.6031L83.7054 14.8562L87.785 7.24609H90.305L92.6291 23.9156H89.4385L87.9818 12.718L83.6844 20.4077L79.3645 12.7398L77.9078 23.9156H74.7607Z" fill="white"></path>
    <path d="M99.9788 24.1847C98.7079 24.2358 97.4476 23.9347 96.337 23.3149C95.4003 22.7814 94.6407 21.985 94.1519 21.0243C93.6848 20.0699 93.4384 19.0226 93.4308 17.9601C93.4233 16.8975 93.6549 15.8469 94.1084 14.886C94.5523 13.9765 95.2379 13.2067 96.09 12.6607C97.0502 12.079 98.1585 11.7882 99.2806 11.8235C100.3 11.7887 101.309 12.0398 102.194 12.5485C102.942 12.9941 103.542 13.6494 103.92 14.433C104.311 15.2417 104.508 16.1303 104.495 17.0284C104.495 17.2924 104.481 17.5562 104.452 17.8187C104.419 18.1003 104.371 18.3798 104.306 18.6559H96.6141C96.6957 19.3061 96.9469 19.9234 97.3424 20.4458C97.681 20.892 98.1304 21.2418 98.646 21.4605C99.1597 21.6571 99.7059 21.7553 100.256 21.7502C100.914 21.7572 101.569 21.6669 102.201 21.4823C102.779 21.3078 103.334 21.0644 103.854 20.7572L104 23.2688C103.457 23.5422 102.885 23.7536 102.295 23.8993C101.539 24.0957 100.76 24.1917 99.9788 24.1847ZM96.6501 16.6181H101.494C101.489 16.249 101.42 15.8836 101.29 15.5381C101.153 15.177 100.918 14.8609 100.613 14.6248C100.239 14.3612 99.7874 14.2309 99.3308 14.2547C98.9999 14.2374 98.669 14.2879 98.3583 14.4031C98.0477 14.5183 97.7638 14.6957 97.5241 14.9245C97.071 15.3907 96.7668 15.9811 96.6501 16.6206V16.6181Z" fill="white"></path>
    <path d="M105.901 23.9184V12.0176H108.684L108.735 12.8548C109.053 12.6541 109.384 12.4749 109.726 12.3182C110.409 11.9963 111.156 11.8351 111.911 11.8468C112.562 11.7984 113.214 11.9121 113.811 12.1777C114.407 12.4433 114.928 12.8526 115.327 13.3688C116.114 14.5284 116.505 15.9113 116.442 17.3112V23.9142H113.47V17.5255C113.534 16.6675 113.341 15.8097 112.916 15.0617C112.705 14.7851 112.427 14.5663 112.109 14.4256C111.791 14.285 111.442 14.227 111.095 14.2571C110.499 14.2333 109.912 14.4102 109.428 14.7594C109.217 14.9257 109.021 15.11 108.842 15.3103C108.645 15.5347 108.842 23.9494 108.842 23.9494L105.901 23.9184Z" fill="white"></path>
    <path d="M121.992 24.1873C121.348 24.2164 120.709 24.0551 120.156 23.7235C119.704 23.4405 119.342 23.0338 119.115 22.5514C118.893 22.0875 118.778 21.5796 118.78 21.0654V14.4515H117.075L117.337 12.0161H118.794V9.42081L121.766 9.10938V12.0086H124.403V14.444H121.766V19.8364C121.751 20.274 121.787 20.7119 121.876 21.1408C121.901 21.2635 121.961 21.3764 122.049 21.4655C122.137 21.5547 122.249 21.6164 122.371 21.6431C122.765 21.7213 123.165 21.7553 123.566 21.7444H124.381L124.119 24.1798L121.992 24.1873Z" fill="white"></path>
    <path d="M130.696 24.1849C129.526 24.2203 128.37 23.9265 127.36 23.3368C126.464 22.7932 125.736 22.0134 125.255 21.0831C124.768 20.1298 124.518 19.0733 124.527 18.003C124.519 16.9258 124.768 15.8623 125.255 14.9012C125.734 13.965 126.463 13.1797 127.36 12.6324C128.383 12.0714 129.53 11.7773 130.697 11.7773C131.863 11.7773 133.01 12.0714 134.033 12.6324C134.931 13.1797 135.66 13.965 136.139 14.9012C136.625 15.8623 136.875 16.9258 136.867 18.003C136.875 19.0733 136.625 20.1298 136.139 21.0831C135.657 22.0135 134.929 22.7933 134.033 23.3368C133.022 23.9255 131.866 24.2193 130.696 24.1849ZM130.696 21.7495C131.141 21.778 131.587 21.6979 131.994 21.5161C132.401 21.3342 132.758 21.056 133.034 20.7055C133.601 19.9216 133.886 18.9688 133.843 18.0022C133.887 17.0243 133.603 16.0598 133.034 15.2629C132.747 14.933 132.393 14.6684 131.995 14.4872C131.598 14.3059 131.166 14.2121 130.729 14.2121C130.291 14.2121 129.859 14.3059 129.462 14.4872C129.064 14.6684 128.71 14.933 128.423 15.2629C127.849 16.0575 127.562 17.0231 127.607 18.0022C127.562 18.97 127.85 19.924 128.423 20.7055C128.694 21.0447 129.041 21.3152 129.436 21.4953C129.83 21.6754 130.262 21.7599 130.696 21.742V21.7495Z" fill="white"></path>
    <path d="M138.134 23.9154V12.0155H140.917L140.989 13.2763C141.366 12.8823 141.798 12.5453 142.271 12.2759C142.815 11.9427 143.441 11.7687 144.078 11.7735C144.256 11.7721 144.434 11.7867 144.61 11.8171L144.391 14.7163C144.22 14.6673 144.044 14.6356 143.867 14.6217H143.365C142.882 14.6167 142.406 14.7339 141.981 14.9624C141.61 15.1504 141.306 15.4461 141.107 15.8105V23.9154H138.134Z" fill="white"></path>
    <g clip-path="url(#clip0_1412_74)">
        <path d="M13.8904 0.68L15.7604 0V35.96H15.7504C12.5704 34.37 9.73043 32.16 7.40043 29.46L7.28043 29.31C6.38043 28.23 5.57043 27.06 4.86043 25.85C4.74043 25.64 4.62043 25.44 4.50043 25.22C2.93043 22.37 1.89043 19.26 1.44043 16.03C1.34043 15.37 1.28043 14.7 1.23043 14.02C1.19043 13.47 1.19043 12.9 1.19043 12.33C1.19043 10.392 1.38651 8.49851 1.80043 6.61C1.86043 6.33 1.98043 6.08 2.15043 5.85C2.32043 5.63 2.53043 5.45 2.78043 5.32C6.39043 3.57 10.1004 2.02 13.8904 0.68Z" fill="#DDE3ED"></path>
        <path d="M15.7604 27.92L5.56044 18.81L7.02044 27.51C6.58044 26.9 6.16044 26.26 5.78044 25.62C5.64044 25.39 5.51044 25.15 5.38044 24.89C3.83044 22.12 2.81044 19.08 2.38044 15.93C2.28044 15.28 2.22044 14.63 2.18044 13.97C2.13044 13.42 2.11044 12.87 2.13044 12.32C2.13044 11.48 2.32044 9.03 2.32044 9.03C2.40044 8.39 2.51044 7.75 2.65044 7.1L15.7604 20.87V27.92Z" fill="#0F2849"></path>
        <path d="M15.7604 27.92L25.9904 18.79L24.5304 27.49C24.9704 26.88 25.3904 26.24 25.7704 25.6C25.9104 25.37 26.0404 25.13 26.1704 24.87C27.7004 22.1 28.7104 19.08 29.1404 15.94C29.2304 15.29 29.3004 14.64 29.3404 13.98C29.3404 13.42 29.4004 12.86 29.4004 12.33C29.4004 11.48 29.3504 10.64 29.2604 9.79C29.2604 9.6 29.2504 9.41 29.2004 9.22V9.02C29.1204 8.38 29.0104 7.74 28.8704 7.09L15.7604 20.86V27.91V27.92Z" fill="#173A68"></path>
        <path d="M17.6304 0.68L15.7604 0V35.96H15.7704C18.9504 34.37 21.7904 32.16 24.1204 29.46L24.2404 29.31C25.1404 28.23 25.9504 27.06 26.6604 25.85C26.7804 25.64 26.9004 25.44 27.0204 25.22C28.5904 22.37 29.6304 19.26 30.0804 16.03C30.1804 15.37 30.2404 14.7 30.2904 14.02C30.3304 13.47 30.3304 12.9 30.3304 12.33C30.3304 10.392 30.1344 8.49851 29.7204 6.61C29.6604 6.33 29.5404 6.08 29.3704 5.85C29.2004 5.63 28.9904 5.45 28.7404 5.32C25.1304 3.57 21.4204 2.02 17.6304 0.68Z" fill="white"></path>
        <path d="M15.7704 20.88L28.8804 7.11C29.0204 7.75 29.1204 8.4 29.2104 9.04C29.2104 9.04 29.4004 11.49 29.4004 12.33C29.4104 12.88 29.4004 13.43 29.3504 13.98C29.3204 14.63 29.2504 15.28 29.1504 15.94C28.7104 19.09 27.6904 22.12 26.1504 24.9C26.0204 25.15 25.8904 25.39 25.7504 25.63C25.3704 26.27 24.9604 26.91 24.5104 27.52L25.9704 18.82L15.7704 27.93V20.88Z" fill="#173A68"></path>
    </g>
    <defs>
        <clipPath id="clip0_1412_74">
            <rect width="29.14" height="35.96" fill="white" transform="translate(1.19043)"></rect>
        </clipPath>
    </defs>
</svg>